<mxfile host="app.diagrams.net" modified="2021-04-09T07:40:57.553Z" agent="5.0 (Windows)" etag="vZurhj53XXRsS6ZQeRl-" version="14.5.8" type="github">
  <diagram id="C5RBs43oDa-KdzZeNtuy" name="Page-1">
    <mxGraphModel dx="1695" dy="489" grid="1" gridSize="10" guides="1" tooltips="1" connect="1" arrows="1" fold="1" page="1" pageScale="1" pageWidth="827" pageHeight="1169" background="none" math="0" shadow="0">
      <root>
        <mxCell id="WIyWlLk6GJQsqaUBKTNV-0" />
        <mxCell id="WIyWlLk6GJQsqaUBKTNV-1" parent="WIyWlLk6GJQsqaUBKTNV-0" />
        <mxCell id="madsNF5-9-t_qONxIqkp-28" style="edgeStyle=orthogonalEdgeStyle;rounded=0;orthogonalLoop=1;jettySize=auto;html=1;exitX=0;exitY=0.5;exitDx=0;exitDy=0;entryX=0.75;entryY=0;entryDx=0;entryDy=0;fontFamily=Times New Roman;" parent="WIyWlLk6GJQsqaUBKTNV-1" source="madsNF5-9-t_qONxIqkp-3" target="madsNF5-9-t_qONxIqkp-21" edge="1">
          <mxGeometry relative="1" as="geometry" />
        </mxCell>
        <mxCell id="5NZmGxR7Z9d4b-Xke_Fb-16" style="edgeStyle=orthogonalEdgeStyle;rounded=0;orthogonalLoop=1;jettySize=auto;html=1;entryX=0.5;entryY=0;entryDx=0;entryDy=0;fontFamily=Times New Roman;" parent="WIyWlLk6GJQsqaUBKTNV-1" source="madsNF5-9-t_qONxIqkp-3" target="5NZmGxR7Z9d4b-Xke_Fb-38" edge="1">
          <mxGeometry relative="1" as="geometry">
            <mxPoint x="740" y="340" as="targetPoint" />
          </mxGeometry>
        </mxCell>
        <mxCell id="madsNF5-9-t_qONxIqkp-3" value="Is the photo bright&lt;div&gt;&amp;amp; clear with no page folding/warping?&amp;nbsp; &lt;br&gt;&lt;/div&gt;" style="rhombus;whiteSpace=wrap;shadow=0;fontFamily=Times New Roman;fontSize=12;align=center;strokeWidth=1;spacing=6;spacingTop=4;verticalAlign=middle;textDirection=ltr;html=1;horizontal=1;fillColor=#dae8fc;strokeColor=#6c8ebf;labelPosition=center;verticalLabelPosition=middle;spacingLeft=1;" parent="WIyWlLk6GJQsqaUBKTNV-1" vertex="1">
          <mxGeometry x="510" y="250" width="142.5" height="142.5" as="geometry" />
        </mxCell>
        <mxCell id="madsNF5-9-t_qONxIqkp-12" style="edgeStyle=orthogonalEdgeStyle;rounded=0;orthogonalLoop=1;jettySize=auto;html=1;entryX=0.5;entryY=0;entryDx=0;entryDy=0;fontFamily=Times New Roman;" parent="WIyWlLk6GJQsqaUBKTNV-1" source="madsNF5-9-t_qONxIqkp-9" target="madsNF5-9-t_qONxIqkp-10" edge="1">
          <mxGeometry relative="1" as="geometry" />
        </mxCell>
        <mxCell id="madsNF5-9-t_qONxIqkp-13" style="edgeStyle=orthogonalEdgeStyle;rounded=0;orthogonalLoop=1;jettySize=auto;html=1;exitX=1;exitY=0.5;exitDx=0;exitDy=0;entryX=0.5;entryY=0;entryDx=0;entryDy=0;fontFamily=Times New Roman;" parent="WIyWlLk6GJQsqaUBKTNV-1" source="madsNF5-9-t_qONxIqkp-9" target="madsNF5-9-t_qONxIqkp-3" edge="1">
          <mxGeometry relative="1" as="geometry" />
        </mxCell>
        <mxCell id="madsNF5-9-t_qONxIqkp-9" value="&lt;br&gt;&lt;br&gt;&lt;p class=&quot;MsoNormal&quot; style=&quot;text-align: center&quot; align=&quot;center&quot;&gt;&lt;span lang=&quot;EN-IN&quot;&gt;Is it scanned?&lt;/span&gt;&lt;/p&gt;&lt;br&gt;&lt;br&gt;" style="rhombus;whiteSpace=wrap;html=1;shadow=0;fontFamily=Times New Roman;fontSize=12;align=center;strokeWidth=1;spacing=6;spacingTop=-4;fillColor=#dae8fc;strokeColor=#6c8ebf;" parent="WIyWlLk6GJQsqaUBKTNV-1" vertex="1">
          <mxGeometry x="324" y="100" width="132.5" height="130" as="geometry" />
        </mxCell>
        <mxCell id="madsNF5-9-t_qONxIqkp-27" style="edgeStyle=orthogonalEdgeStyle;rounded=0;orthogonalLoop=1;jettySize=auto;html=1;exitX=1;exitY=0.5;exitDx=0;exitDy=0;entryX=0.25;entryY=0;entryDx=0;entryDy=0;fontFamily=Times New Roman;" parent="WIyWlLk6GJQsqaUBKTNV-1" source="madsNF5-9-t_qONxIqkp-10" target="madsNF5-9-t_qONxIqkp-21" edge="1">
          <mxGeometry relative="1" as="geometry" />
        </mxCell>
        <mxCell id="5NZmGxR7Z9d4b-Xke_Fb-6" style="edgeStyle=orthogonalEdgeStyle;rounded=0;orthogonalLoop=1;jettySize=auto;html=1;exitX=0;exitY=0.5;exitDx=0;exitDy=0;entryX=0.5;entryY=0;entryDx=0;entryDy=0;fontFamily=Times New Roman;" parent="WIyWlLk6GJQsqaUBKTNV-1" source="madsNF5-9-t_qONxIqkp-10" target="5NZmGxR7Z9d4b-Xke_Fb-58" edge="1">
          <mxGeometry relative="1" as="geometry">
            <mxPoint x="28" y="340" as="targetPoint" />
          </mxGeometry>
        </mxCell>
        <mxCell id="madsNF5-9-t_qONxIqkp-10" value="&lt;div&gt;&lt;span&gt;&lt;br&gt;&lt;/span&gt;&lt;/div&gt;&lt;div&gt;&lt;span&gt;Is the image scanned&lt;/span&gt;&lt;span&gt; with 300dpi? &lt;/span&gt;&lt;/div&gt;" style="rhombus;whiteSpace=wrap;shadow=0;fontFamily=Times New Roman;fontSize=12;align=center;strokeWidth=1;spacing=6;spacingTop=-1;verticalAlign=middle;textDirection=ltr;html=1;horizontal=1;fillColor=#dae8fc;strokeColor=#6c8ebf;labelPosition=center;verticalLabelPosition=middle;" parent="WIyWlLk6GJQsqaUBKTNV-1" vertex="1">
          <mxGeometry x="127.5" y="249.38" width="142.5" height="142.5" as="geometry" />
        </mxCell>
        <mxCell id="madsNF5-9-t_qONxIqkp-14" value="Photographed Image" style="text;html=1;strokeColor=none;fillColor=none;align=center;verticalAlign=middle;whiteSpace=wrap;rounded=0;rotation=0;fontFamily=Times New Roman;" parent="WIyWlLk6GJQsqaUBKTNV-1" vertex="1">
          <mxGeometry x="586" y="154" width="40" height="20" as="geometry" />
        </mxCell>
        <mxCell id="madsNF5-9-t_qONxIqkp-16" value="No" style="text;html=1;strokeColor=none;fillColor=none;align=center;verticalAlign=middle;whiteSpace=wrap;rounded=0;fontFamily=Times New Roman;" parent="WIyWlLk6GJQsqaUBKTNV-1" vertex="1">
          <mxGeometry x="500" y="145" width="40" height="20" as="geometry" />
        </mxCell>
        <mxCell id="madsNF5-9-t_qONxIqkp-19" value="Yes" style="text;html=1;strokeColor=none;fillColor=none;align=center;verticalAlign=middle;whiteSpace=wrap;rounded=0;fontFamily=Times New Roman;" parent="WIyWlLk6GJQsqaUBKTNV-1" vertex="1">
          <mxGeometry x="242" y="145" width="40" height="20" as="geometry" />
        </mxCell>
        <mxCell id="madsNF5-9-t_qONxIqkp-21" value="&lt;div&gt;Image preprocessing&lt;/div&gt;" style="rounded=1;whiteSpace=wrap;html=1;align=center;fillColor=#dae8fc;strokeColor=#6c8ebf;fontFamily=Times New Roman;" parent="WIyWlLk6GJQsqaUBKTNV-1" vertex="1">
          <mxGeometry x="312.25" y="361.25" width="156" height="80" as="geometry" />
        </mxCell>
        <mxCell id="madsNF5-9-t_qONxIqkp-22" value="&lt;div&gt;Text Extraction &lt;br&gt;&lt;/div&gt;&lt;div&gt;using OCR&lt;/div&gt;" style="rounded=1;whiteSpace=wrap;html=1;align=center;fillColor=#dae8fc;strokeColor=#6c8ebf;spacing=0;fontFamily=Times New Roman;" parent="WIyWlLk6GJQsqaUBKTNV-1" vertex="1">
          <mxGeometry x="312.25" y="540" width="156" height="80" as="geometry" />
        </mxCell>
        <mxCell id="madsNF5-9-t_qONxIqkp-23" value="Text Processing" style="rounded=1;whiteSpace=wrap;html=1;align=center;fillColor=#dae8fc;strokeColor=#6c8ebf;fontFamily=Times New Roman;" parent="WIyWlLk6GJQsqaUBKTNV-1" vertex="1">
          <mxGeometry x="312" y="683.75" width="156" height="80" as="geometry" />
        </mxCell>
        <mxCell id="madsNF5-9-t_qONxIqkp-32" style="edgeStyle=orthogonalEdgeStyle;rounded=0;orthogonalLoop=1;jettySize=auto;html=1;fontFamily=Times New Roman;" parent="WIyWlLk6GJQsqaUBKTNV-1" source="madsNF5-9-t_qONxIqkp-31" target="madsNF5-9-t_qONxIqkp-9" edge="1">
          <mxGeometry relative="1" as="geometry" />
        </mxCell>
        <mxCell id="madsNF5-9-t_qONxIqkp-31" value="&#xa;Input Image&#xa;&#xa;" style="shape=parallelogram;perimeter=parallelogramPerimeter;whiteSpace=wrap;html=1;fixedSize=1;rounded=1;strokeColor=#6c8ebf;fillColor=#dae8fc;labelPosition=center;verticalLabelPosition=middle;align=center;verticalAlign=middle;strokeWidth=1;spacingLeft=2;spacingTop=13;fontFamily=Times New Roman;" parent="WIyWlLk6GJQsqaUBKTNV-1" vertex="1">
          <mxGeometry x="325.26" width="129.75" height="60" as="geometry" />
        </mxCell>
        <mxCell id="madsNF5-9-t_qONxIqkp-33" value="Yes" style="text;html=1;strokeColor=none;fillColor=none;align=center;verticalAlign=middle;whiteSpace=wrap;rounded=0;fontFamily=Times New Roman;" parent="WIyWlLk6GJQsqaUBKTNV-1" vertex="1">
          <mxGeometry x="291" y="301" width="40" height="20" as="geometry" />
        </mxCell>
        <mxCell id="madsNF5-9-t_qONxIqkp-34" value="Yes" style="text;html=1;strokeColor=none;fillColor=none;align=center;verticalAlign=middle;whiteSpace=wrap;rounded=0;fontFamily=Times New Roman;" parent="WIyWlLk6GJQsqaUBKTNV-1" vertex="1">
          <mxGeometry x="450" y="301" width="40" height="20" as="geometry" />
        </mxCell>
        <mxCell id="madsNF5-9-t_qONxIqkp-38" value="No" style="text;html=1;strokeColor=none;fillColor=none;align=center;verticalAlign=middle;whiteSpace=wrap;rounded=0;fontFamily=Times New Roman;" parent="WIyWlLk6GJQsqaUBKTNV-1" vertex="1">
          <mxGeometry x="670" y="301" width="40" height="20" as="geometry" />
        </mxCell>
        <mxCell id="madsNF5-9-t_qONxIqkp-40" value="No" style="text;html=1;strokeColor=none;fillColor=none;align=center;verticalAlign=middle;whiteSpace=wrap;rounded=0;fontFamily=Times New Roman;" parent="WIyWlLk6GJQsqaUBKTNV-1" vertex="1">
          <mxGeometry x="70" y="301" width="40" height="20" as="geometry" />
        </mxCell>
        <mxCell id="5NZmGxR7Z9d4b-Xke_Fb-26" value="" style="endArrow=classic;html=1;exitX=0.5;exitY=1;exitDx=0;exitDy=0;entryX=0.5;entryY=0;entryDx=0;entryDy=0;fontFamily=Times New Roman;" parent="WIyWlLk6GJQsqaUBKTNV-1" source="madsNF5-9-t_qONxIqkp-21" target="madsNF5-9-t_qONxIqkp-22" edge="1">
          <mxGeometry relative="1" as="geometry">
            <mxPoint x="368.25" y="490" as="sourcePoint" />
            <mxPoint x="468.25" y="490" as="targetPoint" />
            <Array as="points" />
          </mxGeometry>
        </mxCell>
        <mxCell id="5NZmGxR7Z9d4b-Xke_Fb-27" value="&lt;div style=&quot;font-size: 12px&quot;&gt;Image is enhanced and &lt;br&gt;&lt;/div&gt;&lt;div style=&quot;font-size: 12px&quot;&gt;fed to OCR such that its &lt;br&gt;&lt;/div&gt;&lt;div style=&quot;font-size: 12px&quot;&gt;easier to recognize text.&lt;br style=&quot;font-size: 12px&quot;&gt;&lt;/div&gt;" style="edgeLabel;resizable=0;html=1;align=left;verticalAlign=middle;fontSize=12;fontFamily=Times New Roman;" parent="5NZmGxR7Z9d4b-Xke_Fb-26" connectable="0" vertex="1">
          <mxGeometry relative="1" as="geometry">
            <mxPoint x="-64.99" y="-0.25" as="offset" />
          </mxGeometry>
        </mxCell>
        <mxCell id="5NZmGxR7Z9d4b-Xke_Fb-29" value="" style="endArrow=classic;html=1;exitX=0.5;exitY=1;exitDx=0;exitDy=0;entryX=0.5;entryY=0;entryDx=0;entryDy=0;fontFamily=Times New Roman;" parent="WIyWlLk6GJQsqaUBKTNV-1" source="madsNF5-9-t_qONxIqkp-22" target="madsNF5-9-t_qONxIqkp-23" edge="1">
          <mxGeometry relative="1" as="geometry">
            <mxPoint x="530" y="670" as="sourcePoint" />
            <mxPoint x="530" y="787.5" as="targetPoint" />
            <Array as="points" />
          </mxGeometry>
        </mxCell>
        <mxCell id="5NZmGxR7Z9d4b-Xke_Fb-30" value="&lt;div&gt;Extracted text is &lt;br&gt;&lt;/div&gt;&lt;div&gt;stored in a file.&lt;/div&gt;" style="edgeLabel;resizable=0;html=1;align=left;verticalAlign=middle;fontSize=12;fontFamily=Times New Roman;" parent="5NZmGxR7Z9d4b-Xke_Fb-29" connectable="0" vertex="1">
          <mxGeometry relative="1" as="geometry">
            <mxPoint x="-90.12" y="-2" as="offset" />
          </mxGeometry>
        </mxCell>
        <mxCell id="5NZmGxR7Z9d4b-Xke_Fb-31" value="Data Storage" style="shape=parallelogram;perimeter=parallelogramPerimeter;whiteSpace=wrap;html=1;fixedSize=1;rounded=1;strokeColor=#6c8ebf;fillColor=#dae8fc;spacingTop=-1;spacingLeft=1;fontFamily=Times New Roman;" parent="WIyWlLk6GJQsqaUBKTNV-1" vertex="1">
          <mxGeometry x="313.83000000000004" y="859" width="152.33" height="80" as="geometry" />
        </mxCell>
        <mxCell id="5NZmGxR7Z9d4b-Xke_Fb-32" value="" style="endArrow=classic;html=1;exitX=0.5;exitY=1;exitDx=0;exitDy=0;entryX=0.5;entryY=0;entryDx=0;entryDy=0;fontFamily=Times New Roman;" parent="WIyWlLk6GJQsqaUBKTNV-1" source="madsNF5-9-t_qONxIqkp-23" target="5NZmGxR7Z9d4b-Xke_Fb-31" edge="1">
          <mxGeometry relative="1" as="geometry">
            <mxPoint x="400.25" y="840" as="sourcePoint" />
            <mxPoint x="400.1399999999999" y="961.25" as="targetPoint" />
            <Array as="points" />
          </mxGeometry>
        </mxCell>
        <mxCell id="5NZmGxR7Z9d4b-Xke_Fb-33" value="&lt;div&gt;Extracting fields &lt;br&gt;&lt;/div&gt;&lt;div&gt;using fuzzy logic and &lt;br&gt;&lt;/div&gt;advanced algorithms" style="edgeLabel;resizable=0;html=1;align=left;verticalAlign=middle;fontSize=12;fontFamily=Times New Roman;" parent="5NZmGxR7Z9d4b-Xke_Fb-32" connectable="0" vertex="1">
          <mxGeometry relative="1" as="geometry">
            <mxPoint x="-49.99999999999999" y="-6.25" as="offset" />
          </mxGeometry>
        </mxCell>
        <mxCell id="5NZmGxR7Z9d4b-Xke_Fb-34" value="End" style="ellipse;whiteSpace=wrap;html=1;rounded=1;strokeColor=#6c8ebf;fillColor=#dae8fc;spacingTop=-1;spacingLeft=1;fontFamily=Times New Roman;" parent="WIyWlLk6GJQsqaUBKTNV-1" vertex="1">
          <mxGeometry x="331" y="1089" width="120" height="80" as="geometry" />
        </mxCell>
        <mxCell id="5NZmGxR7Z9d4b-Xke_Fb-38" value="&lt;div&gt;Image preprocessing&lt;/div&gt;" style="rounded=1;whiteSpace=wrap;html=1;align=center;fillColor=#dae8fc;strokeColor=#6c8ebf;fontFamily=Times New Roman;" parent="WIyWlLk6GJQsqaUBKTNV-1" vertex="1">
          <mxGeometry x="660.25" y="361.25" width="156" height="80" as="geometry" />
        </mxCell>
        <mxCell id="Gegq5p_VePBEVRsmqxeE-21" value="" style="edgeStyle=orthogonalEdgeStyle;rounded=0;orthogonalLoop=1;jettySize=auto;html=1;" edge="1" parent="WIyWlLk6GJQsqaUBKTNV-1" source="5NZmGxR7Z9d4b-Xke_Fb-39" target="5NZmGxR7Z9d4b-Xke_Fb-40">
          <mxGeometry relative="1" as="geometry" />
        </mxCell>
        <mxCell id="5NZmGxR7Z9d4b-Xke_Fb-39" value="&lt;div&gt;Text Extraction &lt;br&gt;&lt;/div&gt;&lt;div&gt;using OCR&lt;/div&gt;" style="rounded=1;whiteSpace=wrap;html=1;align=center;fillColor=#dae8fc;strokeColor=#6c8ebf;spacing=0;fontFamily=Times New Roman;" parent="WIyWlLk6GJQsqaUBKTNV-1" vertex="1">
          <mxGeometry x="660.25" y="540" width="156" height="80" as="geometry" />
        </mxCell>
        <mxCell id="5NZmGxR7Z9d4b-Xke_Fb-40" value="Text Processing" style="rounded=1;whiteSpace=wrap;html=1;align=center;fillColor=#dae8fc;strokeColor=#6c8ebf;fontFamily=Times New Roman;" parent="WIyWlLk6GJQsqaUBKTNV-1" vertex="1">
          <mxGeometry x="660" y="683.75" width="156" height="80" as="geometry" />
        </mxCell>
        <mxCell id="5NZmGxR7Z9d4b-Xke_Fb-41" value="" style="endArrow=classic;html=1;exitX=0.5;exitY=1;exitDx=0;exitDy=0;entryX=0.5;entryY=0;entryDx=0;entryDy=0;fontFamily=Times New Roman;" parent="WIyWlLk6GJQsqaUBKTNV-1" source="5NZmGxR7Z9d4b-Xke_Fb-38" target="5NZmGxR7Z9d4b-Xke_Fb-39" edge="1">
          <mxGeometry relative="1" as="geometry">
            <mxPoint x="716.25" y="490" as="sourcePoint" />
            <mxPoint x="816.25" y="490" as="targetPoint" />
            <Array as="points" />
          </mxGeometry>
        </mxCell>
        <mxCell id="Gegq5p_VePBEVRsmqxeE-15" value="" style="edgeStyle=orthogonalEdgeStyle;rounded=0;orthogonalLoop=1;jettySize=auto;html=1;" edge="1" parent="WIyWlLk6GJQsqaUBKTNV-1" source="5NZmGxR7Z9d4b-Xke_Fb-45" target="Gegq5p_VePBEVRsmqxeE-13">
          <mxGeometry relative="1" as="geometry" />
        </mxCell>
        <mxCell id="5NZmGxR7Z9d4b-Xke_Fb-45" value="Data Storage" style="shape=parallelogram;perimeter=parallelogramPerimeter;whiteSpace=wrap;html=1;fixedSize=1;rounded=1;strokeColor=#6c8ebf;fillColor=#dae8fc;spacingTop=-1;spacingLeft=1;fontFamily=Times New Roman;" parent="WIyWlLk6GJQsqaUBKTNV-1" vertex="1">
          <mxGeometry x="663.3299999999999" y="859" width="149.61" height="80" as="geometry" />
        </mxCell>
        <mxCell id="5NZmGxR7Z9d4b-Xke_Fb-46" value="" style="endArrow=classic;html=1;exitX=0.5;exitY=1;exitDx=0;exitDy=0;entryX=0.5;entryY=0;entryDx=0;entryDy=0;fontFamily=Times New Roman;" parent="WIyWlLk6GJQsqaUBKTNV-1" source="5NZmGxR7Z9d4b-Xke_Fb-40" target="5NZmGxR7Z9d4b-Xke_Fb-45" edge="1">
          <mxGeometry relative="1" as="geometry">
            <mxPoint x="748.25" y="840" as="sourcePoint" />
            <mxPoint x="748.1399999999999" y="961.25" as="targetPoint" />
            <Array as="points" />
          </mxGeometry>
        </mxCell>
        <mxCell id="5NZmGxR7Z9d4b-Xke_Fb-51" value="&lt;div&gt;Unclear, darker or warped&lt;/div&gt;&lt;div&gt; image may make it harder&lt;/div&gt;&lt;div&gt; for OCR to function properly.&lt;/div&gt;" style="text;html=1;strokeColor=none;align=center;verticalAlign=middle;whiteSpace=wrap;rounded=0;fontSize=12;fontFamily=Times New Roman;fillColor=#ffffff;" parent="WIyWlLk6GJQsqaUBKTNV-1" vertex="1">
          <mxGeometry x="660.25" y="460" width="151" height="60" as="geometry" />
        </mxCell>
        <mxCell id="5NZmGxR7Z9d4b-Xke_Fb-53" value="&lt;div&gt;Data extracted may not &lt;br&gt;&lt;/div&gt;&lt;div&gt;make sense as OCR has&lt;/div&gt;&lt;div&gt; high variance in prediction.&lt;br&gt;&lt;/div&gt;" style="text;html=1;strokeColor=none;align=center;verticalAlign=middle;whiteSpace=wrap;rounded=0;fontSize=12;fontFamily=Times New Roman;fillColor=#ffffff;" parent="WIyWlLk6GJQsqaUBKTNV-1" vertex="1">
          <mxGeometry x="661" y="789" width="150" height="50" as="geometry" />
        </mxCell>
        <mxCell id="5NZmGxR7Z9d4b-Xke_Fb-55" value="Text extracted has very minimal mistakes." style="text;html=1;strokeColor=none;fillColor=none;align=left;verticalAlign=middle;whiteSpace=wrap;rounded=0;fontSize=12;fontFamily=Times New Roman;" parent="WIyWlLk6GJQsqaUBKTNV-1" vertex="1">
          <mxGeometry x="400" y="630" width="150" height="40" as="geometry" />
        </mxCell>
        <mxCell id="5NZmGxR7Z9d4b-Xke_Fb-90" style="edgeStyle=orthogonalEdgeStyle;rounded=0;orthogonalLoop=1;jettySize=auto;html=1;fontSize=12;fontFamily=Times New Roman;" parent="WIyWlLk6GJQsqaUBKTNV-1" source="5NZmGxR7Z9d4b-Xke_Fb-58" target="5NZmGxR7Z9d4b-Xke_Fb-74" edge="1">
          <mxGeometry relative="1" as="geometry" />
        </mxCell>
        <mxCell id="5NZmGxR7Z9d4b-Xke_Fb-58" value="&lt;div&gt;Image preprocessing&lt;/div&gt;" style="rounded=1;whiteSpace=wrap;html=1;align=center;fillColor=#dae8fc;strokeColor=#6c8ebf;fontFamily=Times New Roman;" parent="WIyWlLk6GJQsqaUBKTNV-1" vertex="1">
          <mxGeometry x="-46" y="361.25" width="156" height="80" as="geometry" />
        </mxCell>
        <mxCell id="5NZmGxR7Z9d4b-Xke_Fb-74" value="&lt;div&gt;Text Extraction &lt;br&gt;&lt;/div&gt;&lt;div&gt;using OCR&lt;/div&gt;" style="rounded=1;whiteSpace=wrap;html=1;align=center;fillColor=#dae8fc;strokeColor=#6c8ebf;spacing=0;fontFamily=Times New Roman;" parent="WIyWlLk6GJQsqaUBKTNV-1" vertex="1">
          <mxGeometry x="-46.06" y="540" width="156" height="80" as="geometry" />
        </mxCell>
        <mxCell id="5NZmGxR7Z9d4b-Xke_Fb-75" value="Text Processing" style="rounded=1;whiteSpace=wrap;html=1;align=center;fillColor=#dae8fc;strokeColor=#6c8ebf;fontFamily=Times New Roman;" parent="WIyWlLk6GJQsqaUBKTNV-1" vertex="1">
          <mxGeometry x="-46" y="683.75" width="156" height="80" as="geometry" />
        </mxCell>
        <mxCell id="5NZmGxR7Z9d4b-Xke_Fb-76" value="" style="endArrow=classic;html=1;exitX=0.5;exitY=1;exitDx=0;exitDy=0;entryX=0.5;entryY=0;entryDx=0;entryDy=0;fontFamily=Times New Roman;" parent="WIyWlLk6GJQsqaUBKTNV-1" source="5NZmGxR7Z9d4b-Xke_Fb-74" target="5NZmGxR7Z9d4b-Xke_Fb-75" edge="1">
          <mxGeometry relative="1" as="geometry">
            <mxPoint x="175" y="670" as="sourcePoint" />
            <mxPoint x="175" y="787.5" as="targetPoint" />
            <Array as="points" />
          </mxGeometry>
        </mxCell>
        <mxCell id="Gegq5p_VePBEVRsmqxeE-14" value="" style="edgeStyle=orthogonalEdgeStyle;rounded=0;orthogonalLoop=1;jettySize=auto;html=1;" edge="1" parent="WIyWlLk6GJQsqaUBKTNV-1" source="5NZmGxR7Z9d4b-Xke_Fb-78" target="Gegq5p_VePBEVRsmqxeE-12">
          <mxGeometry relative="1" as="geometry" />
        </mxCell>
        <mxCell id="5NZmGxR7Z9d4b-Xke_Fb-78" value="Data Storage" style="shape=parallelogram;perimeter=parallelogramPerimeter;whiteSpace=wrap;html=1;fixedSize=1;rounded=1;strokeColor=#6c8ebf;fillColor=#dae8fc;spacingTop=-1;spacingLeft=1;fontFamily=Times New Roman;" parent="WIyWlLk6GJQsqaUBKTNV-1" vertex="1">
          <mxGeometry x="-42.800000000000075" y="859" width="149.61" height="80" as="geometry" />
        </mxCell>
        <mxCell id="5NZmGxR7Z9d4b-Xke_Fb-79" value="" style="endArrow=classic;html=1;exitX=0.5;exitY=1;exitDx=0;exitDy=0;entryX=0.5;entryY=0;entryDx=0;entryDy=0;fontFamily=Times New Roman;" parent="WIyWlLk6GJQsqaUBKTNV-1" source="5NZmGxR7Z9d4b-Xke_Fb-75" target="5NZmGxR7Z9d4b-Xke_Fb-78" edge="1">
          <mxGeometry relative="1" as="geometry">
            <mxPoint x="45.25" y="840" as="sourcePoint" />
            <mxPoint x="45.13999999999987" y="961.25" as="targetPoint" />
            <Array as="points" />
          </mxGeometry>
        </mxCell>
        <mxCell id="5NZmGxR7Z9d4b-Xke_Fb-85" value="&lt;div&gt;Text may contain more mistakes, spelling errors and unrecognized words.&lt;br&gt;&lt;/div&gt;" style="text;html=1;align=center;verticalAlign=middle;whiteSpace=wrap;rounded=0;fontSize=12;fontFamily=Times New Roman;fillColor=#ffffff;" parent="WIyWlLk6GJQsqaUBKTNV-1" vertex="1">
          <mxGeometry x="-36" y="630" width="150" height="40" as="geometry" />
        </mxCell>
        <mxCell id="5NZmGxR7Z9d4b-Xke_Fb-86" value="&lt;div&gt;Data extracted may not make sense as OCR prediction is not consistent.&lt;br&gt;&lt;/div&gt;" style="text;html=1;strokeColor=none;align=center;verticalAlign=middle;whiteSpace=wrap;rounded=0;fontSize=12;fontFamily=Times New Roman;fillColor=#ffffff;" parent="WIyWlLk6GJQsqaUBKTNV-1" vertex="1">
          <mxGeometry x="-28.989999999999995" y="780" width="136" height="51" as="geometry" />
        </mxCell>
        <mxCell id="5NZmGxR7Z9d4b-Xke_Fb-89" value="&lt;div&gt;Images scanned with dpi&lt;/div&gt;&lt;div&gt; settings other than 300 &lt;br&gt;&lt;/div&gt;&lt;div&gt;may makeit harder for &lt;br&gt;&lt;/div&gt;&lt;div&gt;OCR to function properly. &lt;br&gt;&lt;/div&gt;" style="text;strokeColor=none;align=center;verticalAlign=middle;rounded=0;fontSize=12;textDirection=ltr;html=1;whiteSpace=wrap;labelBorderColor=none;labelBackgroundColor=none;fontStyle=0;fontFamily=Times New Roman;fillColor=#ffffff;" parent="WIyWlLk6GJQsqaUBKTNV-1" vertex="1">
          <mxGeometry x="-32.06" y="460" width="138.06" height="52.5" as="geometry" />
        </mxCell>
        <mxCell id="Gegq5p_VePBEVRsmqxeE-11" value="" style="edgeStyle=orthogonalEdgeStyle;rounded=0;orthogonalLoop=1;jettySize=auto;html=1;" edge="1" parent="WIyWlLk6GJQsqaUBKTNV-1" source="Gegq5p_VePBEVRsmqxeE-8" target="5NZmGxR7Z9d4b-Xke_Fb-34">
          <mxGeometry relative="1" as="geometry" />
        </mxCell>
        <mxCell id="Gegq5p_VePBEVRsmqxeE-8" value="Accuracy of prediction is on average greater than 85%" style="whiteSpace=wrap;html=1;rounded=1;fontFamily=Times New Roman;strokeColor=#6c8ebf;fillColor=#dae8fc;spacingTop=-1;spacingLeft=1;" vertex="1" parent="WIyWlLk6GJQsqaUBKTNV-1">
          <mxGeometry x="330.135" y="1000" width="120" height="60" as="geometry" />
        </mxCell>
        <mxCell id="Gegq5p_VePBEVRsmqxeE-17" style="edgeStyle=orthogonalEdgeStyle;rounded=0;orthogonalLoop=1;jettySize=auto;html=1;entryX=0;entryY=0.5;entryDx=0;entryDy=0;" edge="1" parent="WIyWlLk6GJQsqaUBKTNV-1" source="Gegq5p_VePBEVRsmqxeE-12" target="5NZmGxR7Z9d4b-Xke_Fb-34">
          <mxGeometry relative="1" as="geometry">
            <Array as="points">
              <mxPoint x="32" y="1129" />
            </Array>
          </mxGeometry>
        </mxCell>
        <mxCell id="Gegq5p_VePBEVRsmqxeE-12" value="&lt;div&gt;Accuracy of prediction &lt;br&gt;&lt;/div&gt;&lt;div&gt;varies from 30% to 80%.&lt;/div&gt;" style="whiteSpace=wrap;html=1;rounded=1;fontFamily=Times New Roman;strokeColor=#6c8ebf;fillColor=#dae8fc;spacingTop=-1;spacingLeft=1;" vertex="1" parent="WIyWlLk6GJQsqaUBKTNV-1">
          <mxGeometry x="-27.995000000000005" y="1000" width="120" height="60" as="geometry" />
        </mxCell>
        <mxCell id="Gegq5p_VePBEVRsmqxeE-16" style="edgeStyle=orthogonalEdgeStyle;rounded=0;orthogonalLoop=1;jettySize=auto;html=1;entryX=1;entryY=0.5;entryDx=0;entryDy=0;" edge="1" parent="WIyWlLk6GJQsqaUBKTNV-1" source="Gegq5p_VePBEVRsmqxeE-13" target="5NZmGxR7Z9d4b-Xke_Fb-34">
          <mxGeometry relative="1" as="geometry">
            <Array as="points">
              <mxPoint x="738" y="1129" />
            </Array>
          </mxGeometry>
        </mxCell>
        <mxCell id="Gegq5p_VePBEVRsmqxeE-13" value="Accuracy of prediction varies widely ranging from 10% to 70%." style="whiteSpace=wrap;html=1;rounded=1;fontFamily=Times New Roman;strokeColor=#6c8ebf;fillColor=#dae8fc;spacingTop=-1;spacingLeft=1;" vertex="1" parent="WIyWlLk6GJQsqaUBKTNV-1">
          <mxGeometry x="678.245" y="1000" width="120" height="60" as="geometry" />
        </mxCell>
        <mxCell id="Gegq5p_VePBEVRsmqxeE-18" value="" style="endArrow=classic;html=1;exitX=0.5;exitY=1;exitDx=0;exitDy=0;entryX=0.5;entryY=0;entryDx=0;entryDy=0;fontFamily=Times New Roman;" edge="1" parent="WIyWlLk6GJQsqaUBKTNV-1" source="5NZmGxR7Z9d4b-Xke_Fb-31" target="Gegq5p_VePBEVRsmqxeE-8">
          <mxGeometry relative="1" as="geometry">
            <mxPoint x="570" y="903.75" as="sourcePoint" />
            <mxPoint x="570.0050000000001" y="1000" as="targetPoint" />
            <Array as="points" />
          </mxGeometry>
        </mxCell>
        <mxCell id="Gegq5p_VePBEVRsmqxeE-19" value="&lt;div&gt;Stored in database or&lt;/div&gt;&lt;div&gt; exported as csv or excel file.&lt;/div&gt;" style="edgeLabel;resizable=0;html=1;align=left;verticalAlign=middle;fontSize=12;fontFamily=Times New Roman;" connectable="0" vertex="1" parent="Gegq5p_VePBEVRsmqxeE-18">
          <mxGeometry relative="1" as="geometry">
            <mxPoint x="-58.06999999999999" y="-2.75" as="offset" />
          </mxGeometry>
        </mxCell>
        <mxCell id="5NZmGxR7Z9d4b-Xke_Fb-52" value="&lt;div&gt;Text may contain more &lt;br&gt;&lt;/div&gt;&lt;div&gt;errors, spelling mistake &lt;br&gt;&lt;/div&gt;&lt;div&gt;and unrecognized words.&lt;br&gt;&lt;/div&gt;" style="text;html=1;strokeColor=none;align=center;verticalAlign=middle;whiteSpace=wrap;rounded=0;fontSize=12;fontFamily=Times New Roman;fillColor=#ffffff;" parent="WIyWlLk6GJQsqaUBKTNV-1" vertex="1">
          <mxGeometry x="672.24" y="630" width="130" height="40" as="geometry" />
        </mxCell>
      </root>
    </mxGraphModel>
  </diagram>
</mxfile>
